<?xml version="1.0" encoding="iso-8859-1"?>
<!-- Generator: Adobe Illustrator 19.0.0, SVG Export Plug-In . SVG Version: 6.00 Build 0)  -->
<svg version="1.1" id="Layer_1" xmlns="http://www.w3.org/2000/svg" xmlns:xlink="http://www.w3.org/1999/xlink" x="0px" y="0px"
	 viewBox="0 0 512 512" style="enable-background:new 0 0 512 512;" xml:space="preserve">
<path style="fill:#464655;" d="M494.345,79.448h-65.758c-0.375,0.46-0.778,0.906-1.207,1.335l-25.128,25.128l-0.019,0.02h83.284
	v247.172H26.483V105.931h225.303l26.483-26.483H17.655C7.904,79.448,0,87.352,0,97.103v282.483h512V97.103
	C512,87.352,504.095,79.448,494.345,79.448z"/>
<path style="fill:#FFFFFF;" d="M168.948,297.242l-39.194,16.798c-1.286,0.551-2.574,0.755-3.8,0.678
	c-3.849-0.244-7.055-3.27-7.633-7.034c-0.22-1.43-0.077-2.962,0.579-4.495l11.39-26.577l0,0l36.888-86.072l84.608-84.608H26.483
	v247.172h459.034V105.931h-83.284l-159.83,159.83L168.948,297.242z"/>
<path style="fill:#BEC8DC;" d="M0,414.897c0,9.751,7.904,17.655,17.655,17.655h167.724h141.241h167.724
	c9.75,0,17.655-7.904,17.655-17.655v-35.31H0V414.897z M256,392.828c7.313,0,13.241,5.929,13.241,13.241S263.313,419.31,256,419.31
	c-7.313,0-13.241-5.929-13.241-13.241S248.687,392.828,256,392.828z"/>
<polygon style="fill:#AFBBD0;" points="177.655,494.345 334.345,494.345 328.828,450.207 183.172,450.207 "/>
<path style="fill:#BEC8DC;" d="M176.552,494.345c-4.875,0-8.828,3.953-8.828,8.828c0,4.875,3.953,8.828,8.828,8.828h158.897
	c4.875,0,8.828-3.953,8.828-8.828c0-4.875-3.953-8.828-8.828-8.828h-1.103h-156.69H176.552z"/>
<g>
	<polygon style="fill:#96A5B9;" points="183.172,450.207 328.828,450.207 326.621,432.552 185.379,432.552 	"/>
	<circle style="fill:#96A5B9;" cx="256" cy="406.069" r="13.241"/>
</g>
<polygon style="fill:#D75055;" points="167.179,190.538 204.791,228.15 364.641,68.3 345.835,49.494 327.029,30.688 278.269,79.448 
	251.786,105.931 "/>
<polygon style="fill:#FF6469;" points="364.641,68.299 364.641,68.3 204.791,228.15 242.403,265.761 402.233,105.931 
	402.253,105.911 "/>
<g>
	<polygon style="fill:#FFF0BE;" points="327.029,30.688 327.029,30.688 345.835,49.494 	"/>
	<path style="fill:#FFF0BE;" d="M402.253,105.911l25.128-25.128c0.429-0.429,0.831-0.875,1.207-1.335
		c5.661-6.934,5.259-17.167-1.207-23.633l-25.128-25.128L364.641,68.3L402.253,105.911z"/>
	<path style="fill:#FFF0BE;" d="M118.321,307.682c0.577,3.765,3.784,6.792,7.633,7.034
		C122.104,314.474,118.898,311.448,118.321,307.682z"/>
	<polygon style="fill:#FFF0BE;" points="176.583,293.971 168.948,297.242 242.403,265.761 204.791,228.15 157.777,275.165 	"/>
</g>
<polygon style="fill:#FFDC9B;" points="130.291,276.611 138.97,256.359 157.777,275.165 204.791,228.15 167.179,190.538 
	130.291,276.61 "/>
<path style="fill:#D75055;" d="M157.777,275.165l-18.806-18.806l-8.68,20.253l-11.39,26.577c-0.658,1.534-0.799,3.065-0.579,4.495
	c0.577,3.765,3.784,6.792,7.633,7.034c1.226,0.077,2.514-0.127,3.8-0.678l39.194-16.798l7.634-3.272L157.777,275.165z"/>
<path style="fill:#FFDC9B;" d="M364.641,68.3L364.641,68.3l37.612-37.612l0,0L376.462,4.896c-6.529-6.528-17.113-6.528-23.642,0
	l-25.791,25.792l0,0l18.806,18.806L364.641,68.3z"/>
<g>
</g>
<g>
</g>
<g>
</g>
<g>
</g>
<g>
</g>
<g>
</g>
<g>
</g>
<g>
</g>
<g>
</g>
<g>
</g>
<g>
</g>
<g>
</g>
<g>
</g>
<g>
</g>
<g>
</g>
</svg>
