<?xml version="1.0" encoding="UTF-8" standalone="no"?>
<svg
   version="1.0"
   width="1024.000000pt"
   height="1024.000000pt"
   viewBox="0 0 1024.000000 1024.000000"
   preserveAspectRatio="xMidYMid meet"
   id="svg18"
   sodipodi:docname="nextjs_bootstrap.svg"
   inkscape:version="1.1 (c68e22c387, 2021-05-23)"
   xmlns:inkscape="http://www.inkscape.org/namespaces/inkscape"
   xmlns:sodipodi="http://sodipodi.sourceforge.net/DTD/sodipodi-0.dtd"
   xmlns="http://www.w3.org/2000/svg"
   xmlns:svg="http://www.w3.org/2000/svg">
  <defs
     id="defs22" />
  <sodipodi:namedview
     id="namedview20"
     pagecolor="#ffffff"
     bordercolor="#666666"
     borderopacity="1.0"
     inkscape:pageshadow="2"
     inkscape:pageopacity="0.0"
     inkscape:pagecheckerboard="0"
     inkscape:document-units="pt"
     showgrid="false"
     inkscape:zoom="0.32153204"
     inkscape:cx="681.11408"
     inkscape:cy="679.55903"
     inkscape:window-width="3440"
     inkscape:window-height="1417"
     inkscape:window-x="-8"
     inkscape:window-y="-8"
     inkscape:window-maximized="1"
     inkscape:current-layer="svg18" />
  <metadata
     id="metadata2">
Created by potrace 1.11, written by Peter Selinger 2001-2013
</metadata>
  <g
     transform="matrix(0.05171077,0,0,-0.05171077,30.389612,562.54848)"
     fill="#000000"
     stroke="none"
     id="g16">
    <path
       d="m 4785,10234 c -22,-2 -92,-9 -155,-14 C 3177,10089 1816,9305 954,8100 474,7430 167,6670 51,5865 10,5584 5,5501 5,5120 5,4739 10,4656 51,4375 329,2454 1696,840 3550,242 3882,135 4232,62 4630,18 c 155,-17 825,-17 980,0 687,76 1269,246 1843,539 88,45 105,57 93,67 -8,6 -383,509 -833,1117 L 5895,2846 4870,4363 c -564,834 -1028,1516 -1032,1516 -4,1 -8,-673 -10,-1496 -3,-1441 -4,-1499 -22,-1533 -26,-49 -46,-69 -88,-91 -32,-16 -60,-19 -211,-19 h -173 l -46,29 c -30,19 -52,44 -67,73 l -21,45 2,2005 3,2006 31,39 c 16,21 50,48 74,61 41,20 57,22 230,22 204,0 238,-8 291,-66 15,-16 570,-852 1234,-1859 664,-1007 1572,-2382 2018,-3057 l 810,-1227 41,27 c 363,236 747,572 1051,922 647,743 1064,1649 1204,2615 41,281 46,364 46,745 0,381 -5,464 -46,745 -278,1921 -1645,3535 -3499,4133 -327,106 -675,179 -1065,223 -96,10 -757,21 -840,13 z M 6879,7140 c 48,-24 87,-70 101,-118 8,-26 10,-582 8,-1835 l -3,-1798 -317,486 -318,486 v 1307 c 0,845 4,1320 10,1343 16,56 51,100 99,126 41,21 56,23 213,23 148,0 174,-2 207,-20 z"
       id="path4" />
    <path
       d="m 7843,789 c -35,-22 -46,-37 -15,-20 22,13 58,40 52,41 -3,0 -20,-10 -37,-21 z"
       id="path6" />
    <path
       d="m 7774,744 c -18,-14 -18,-15 4,-4 12,6 22,13 22,15 0,8 -5,6 -26,-11 z"
       id="path8" />
    <path
       d="m 7724,714 c -18,-14 -18,-15 4,-4 12,6 22,13 22,15 0,8 -5,6 -26,-11 z"
       id="path10" />
    <path
       d="m 7674,684 c -18,-14 -18,-15 4,-4 12,6 22,13 22,15 0,8 -5,6 -26,-11 z"
       id="path12" />
    <path
       d="m 7598,644 c -38,-20 -36,-28 2,-9 17,9 30,18 30,20 0,7 -1,6 -32,-11 z"
       id="path14" />
  </g>
  <path
     fill-rule="evenodd"
     d="M 599.80139,474.99648 A 131.8027,131.8027 0 0 0 467.99871,606.79918 V 870.40461 A 131.8027,131.8027 0 0 0 599.80139,1002.2073 H 863.40687 A 131.8027,131.8027 0 0 0 995.20952,870.40461 V 606.79918 A 131.8027,131.8027 0 0 0 863.40687,474.99648 Z m 34.92774,395.40813 h 114.50578 c 59.44299,0 95.16162,-29.9192 95.16162,-78.94982 0,-36.31163 -25.07771,-63.13352 -62.73811,-67.0217 v -3.29506 c 27.41498,-4.6131 48.83292,-30.64413 48.83292,-59.83843 0,-42.83587 -31.47014,-69.52592 -83.76065,-69.52592 H 634.72913 Z m 43.26642,-160.63457 v -81.28932 h 58.65219 c 32.05887,0 50.81002,15.05847 50.81002,40.75999 0,26.42645 -19.90222,40.52933 -58.12507,40.52933 z m 0,123.96043 h 62.54041 c 39.01364,0 59.64069,-15.81631 59.64069,-45.3731 0,-29.16128 -21.41795,-44.41748 -62.14491,-44.41748 h -60.03619 z"
     id="path2"
     style="stroke-width:32.9506" />
</svg>
