<?xml version="1.0" encoding="utf-8"?>

<svg version="1.1" id="Icons" xmlns="http://www.w3.org/2000/svg" xmlns:xlink="http://www.w3.org/1999/xlink" x="0px" y="0px"
	 viewBox="0 0 32 32" style="enable-background:new 0 0 32 32;" xml:space="preserve">
<path d="M29,7H3c-1.7,0-3,1.3-3,3v12c0,1.7,1.3,3,3,3h26c1.7,0,3-1.3,3-3V10C32,8.3,30.7,7,29,7z M8,15c1.7,0,3,1.3,3,3s-1.3,3-3,3
	s-3-1.3-3-3c0-0.6,0.4-1,1-1s1,0.4,1,1c0,0.6,0.4,1,1,1s1-0.4,1-1s-0.4-1-1-1c-1.7,0-3-1.3-3-3s1.3-3,3-3s3,1.3,3,3c0,0.6-0.4,1-1,1
	s-1-0.4-1-1c0-0.6-0.4-1-1-1s-1,0.4-1,1S7.4,15,8,15z M16,15c1.7,0,3,1.3,3,3s-1.3,3-3,3s-3-1.3-3-3c0-0.6,0.4-1,1-1s1,0.4,1,1
	c0,0.6,0.4,1,1,1s1-0.4,1-1s-0.4-1-1-1c-1.7,0-3-1.3-3-3s1.3-3,3-3s3,1.3,3,3c0,0.6-0.4,1-1,1s-1-0.4-1-1c0-0.6-0.4-1-1-1
	s-1,0.4-1,1S15.4,15,16,15z M26,21h-4c-0.6,0-1-0.4-1-1v-8c0-0.6,0.4-1,1-1s1,0.4,1,1v7h3c0.6,0,1,0.4,1,1S26.6,21,26,21z"/>
</svg>
