<?xml version="1.0" encoding="UTF-8" standalone="no"?>
<svg
   xmlns:dc="http://purl.org/dc/elements/1.1/"
   xmlns:cc="http://creativecommons.org/ns#"
   xmlns:rdf="http://www.w3.org/1999/02/22-rdf-syntax-ns#"
   xmlns:svg="http://www.w3.org/2000/svg"
   xmlns="http://www.w3.org/2000/svg"
   xmlns:sodipodi="http://sodipodi.sourceforge.net/DTD/sodipodi-0.dtd"
   xmlns:inkscape="http://www.inkscape.org/namespaces/inkscape"
   height="512"
   width="512"
   version="1.1"
   id="svg4505"
   sodipodi:docname="github-tile-gray.svg"
   inkscape:version="0.92.1 r15371">
  <metadata
     id="metadata4511">
    <rdf:RDF>
      <cc:Work
         rdf:about="">
        <dc:format>image/svg+xml</dc:format>
        <dc:type
           rdf:resource="http://purl.org/dc/dcmitype/StillImage" />
        <dc:title></dc:title>
      </cc:Work>
    </rdf:RDF>
  </metadata>
  <defs
     id="defs4509" />
  <sodipodi:namedview
     pagecolor="#ffffff"
     bordercolor="#666666"
     borderopacity="1"
     objecttolerance="10"
     gridtolerance="10"
     guidetolerance="10"
     inkscape:pageopacity="0"
     inkscape:pageshadow="2"
     inkscape:window-width="1149"
     inkscape:window-height="702"
     id="namedview4507"
     showgrid="false"
     inkscape:zoom="0.4609375"
     inkscape:cx="256"
     inkscape:cy="256"
     inkscape:window-x="424"
     inkscape:window-y="297"
     inkscape:window-maximized="0"
     inkscape:current-layer="svg4505" />
  <rect
     fill="#171515"
     height="512"
     rx="15%"
     width="512"
     id="rect4501"
     style="fill:#67778f;fill-opacity:0.94117647" />
  <path
     d="m119 255c17 30 49 48 102 53-8 6-17 17-18 30-10 6-29 8-44 3-21-7-29-48-61-42-7 1-6 6 0 10 10 6 21 16 26 30 12 31 37 39 77 33v45c0 14-20 18-20 25 0 3 7 3 12 3 10 0 32-9 32-23 0-12 0-52 1-59 0-15 8-20 8-20s1 82-2 92c-4 13-10 11-10 17 0 9 26 2 35-17 7-15 4-95 3-94h7s0 37 1 53c0 17-1 39 9 50 7 7 29 19 29 8 0-6-12-12-12-29v-79c10 0 8 26 8 26l1 48s-2 18 19 25c8 3 24 3 25-1s-20-11-20-25v-49c0-36-5-49-22-60 53-5 86-18 102-53 10-20 12-44 12-62 0-50-24-67-29-76 7-38-1-55-5-60-14-5-48 12-66 24-30-9-94-8-118 2-44-31-67-26-67-26s-15 27-4 66c-15 18-25 31-26 65 0 27 3 44 15 67z"
     fill="#fff"
     id="path4503" />
</svg>
