<?xml version="1.0" encoding="UTF-8" standalone="no"?>
<svg
   height="46"
   version="1.0"
   viewBox="0 0 60 46"
   width="60"
   xml:space="preserve"
   id="svg51"
   sodipodi:docname="goldstack_icon.svg"
   inkscape:version="1.1 (c68e22c387, 2021-05-23)"
   xmlns:inkscape="http://www.inkscape.org/namespaces/inkscape"
   xmlns:sodipodi="http://sodipodi.sourceforge.net/DTD/sodipodi-0.dtd"
   xmlns="http://www.w3.org/2000/svg"
   xmlns:svg="http://www.w3.org/2000/svg"><defs
     id="defs55" /><sodipodi:namedview
     id="namedview53"
     pagecolor="#ffffff"
     bordercolor="#666666"
     borderopacity="1.0"
     inkscape:pageshadow="2"
     inkscape:pageopacity="0.0"
     inkscape:pagecheckerboard="0"
     showgrid="false"
     inkscape:zoom="6.8454545"
     inkscape:cx="35.424967"
     inkscape:cy="55"
     inkscape:window-width="1920"
     inkscape:window-height="1137"
     inkscape:window-x="-8"
     inkscape:window-y="-8"
     inkscape:window-maximized="1"
     inkscape:current-layer="svg51"
     width="109px" /><g
     id="Multicolor"
     transform="translate(0.43824701,0.14608234)"><path
       d="m 16.601862,30.378285 c -0.156,-0.468 -0.594,-0.784 -1.087,-0.784 H 7.9998619 c -0.493,0 -0.931,0.316 -1.087,0.784 l -4.071,12.213 c -0.058,0.175 -0.029,0.367 0.079,0.516 0.107,0.149 0.28,0.238 0.464,0.238 H 20.129862 c 0.184,0 0.357,-0.089 0.465,-0.238 0.108,-0.149 0.137,-0.341 0.079,-0.516 z"
       style="fill:#f3b607"
       id="path2" /><path
       d="m 25.546862,16.627285 c -0.156,-0.468 -0.594,-0.784 -1.087,-0.784 h -7.515 c -0.493,0 -0.931,0.316 -1.087,0.784 l -4.071,12.213 c -0.058,0.175 -0.029,0.367 0.079,0.516 0.108,0.149 0.281,0.238 0.465,0.238 h 16.745 c 0.184,0 0.357,-0.089 0.465,-0.238 0.108,-0.149 0.137,-0.341 0.079,-0.516 z"
       style="fill:#f3b607"
       id="path4" /><path
       d="m 34.492862,30.378285 c -0.156,-0.468 -0.594,-0.784 -1.087,-0.784 h -7.515 c -0.493,0 -0.931,0.316 -1.087,0.784 l -4.071,12.213 c -0.058,0.175 -0.029,0.367 0.079,0.516 0.106,0.149 0.279,0.238 0.464,0.238 h 16.745 c 0.184,0 0.357,-0.089 0.465,-0.238 0.108,-0.149 0.137,-0.341 0.079,-0.516 z"
       style="fill:#f3b607"
       id="path6" /><path
       d="M 15.514862,29.594285 H 7.9998619 c -0.493,0 -0.931,0.316 -1.087,0.784 l -4.071,12.213 c -0.058,0.175 -0.029,0.367 0.079,0.516 0.042,0.059 0.097,0.105 0.156,0.143 l 13.2750001,-13.275 c -0.213,-0.232 -0.508,-0.381 -0.837,-0.381 z"
       style="fill:#fbe158"
       id="path8" /><path
       d="m 24.448862,15.843285 h -7.515 c -0.493,0 -0.931,0.316 -1.087,0.784 l -4.071,12.213 c -0.058,0.175 -0.029,0.367 0.079,0.516 0.042,0.059 0.097,0.105 0.156,0.143 l 13.275,-13.275 c -0.212,-0.232 -0.508,-0.381 -0.837,-0.381 z"
       style="fill:#fbe158"
       id="path10" /><path
       d="m 34.267862,2.877285 c -0.156,-0.468 -0.594,-0.784 -1.087,-0.784 h -7.515 c -0.493,0 -0.931,0.316 -1.087,0.784 l -4.071,12.213 c -0.058,0.175 -0.029,0.367 0.079,0.516 0.108,0.149 0.281,0.238 0.465,0.238 h 16.745 c 0.184,0 0.357,-0.089 0.465,-0.238 0.108,-0.149 0.137,-0.341 0.079,-0.516 z"
       style="fill:#f3b607"
       id="path12" /><path
       d="m 33.168862,2.093285 h -7.515 c -0.493,0 -0.931,0.316 -1.087,0.784 l -4.071,12.213 c -0.058,0.175 -0.029,0.367 0.079,0.516 0.042,0.059 0.097,0.105 0.156,0.143 l 13.275,-13.275 c -0.212,-0.232 -0.508,-0.381 -0.837,-0.381 z"
       style="fill:#fbe158"
       id="path14" /><path
       d="m 43.267862,16.627285 c -0.156,-0.468 -0.594,-0.784 -1.087,-0.784 h -7.515 c -0.493,0 -0.931,0.316 -1.087,0.784 l -4.071,12.213 c -0.058,0.175 -0.029,0.367 0.079,0.516 0.108,0.149 0.281,0.238 0.465,0.238 h 16.745 c 0.184,0 0.357,-0.089 0.465,-0.238 0.108,-0.149 0.137,-0.341 0.079,-0.516 z"
       style="fill:#f3b607"
       id="path16" /><path
       d="m 42.168862,15.843285 h -7.515 c -0.493,0 -0.931,0.316 -1.087,0.784 l -4.071,12.213 c -0.058,0.175 -0.029,0.367 0.079,0.516 0.042,0.059 0.097,0.105 0.156,0.143 l 13.275,-13.275 c -0.212,-0.232 -0.508,-0.381 -0.837,-0.381 z"
       style="fill:#fbe158"
       id="path18" /><path
       d="m 33.404862,29.594285 h -7.515 c -0.493,0 -0.931,0.316 -1.087,0.784 l -4.071,12.213 c -0.058,0.175 -0.029,0.367 0.079,0.516 0.042,0.059 0.097,0.105 0.156,0.143 l 13.276,-13.275 c -0.213,-0.232 -0.509,-0.381 -0.838,-0.381 z"
       style="fill:#fbe158"
       id="path20" /><path
       d="m 52.492862,30.378285 c -0.156,-0.468 -0.594,-0.784 -1.087,-0.784 h -7.515 c -0.493,0 -0.931,0.316 -1.087,0.784 l -4.071,12.213 c -0.058,0.175 -0.029,0.367 0.079,0.516 0.106,0.149 0.279,0.238 0.464,0.238 h 16.745 c 0.184,0 0.357,-0.089 0.465,-0.238 0.108,-0.149 0.137,-0.341 0.079,-0.516 z"
       style="fill:#f3b607"
       id="path22" /><path
       d="m 51.404862,29.594285 h -7.515 c -0.493,0 -0.931,0.316 -1.087,0.784 l -4.071,12.213 c -0.058,0.175 -0.029,0.367 0.079,0.516 0.042,0.059 0.097,0.105 0.156,0.143 l 13.276,-13.275 c -0.213,-0.232 -0.509,-0.381 -0.838,-0.381 z"
       style="fill:#fbe158"
       id="path24" /></g></svg>
