<?xml version="1.0" ?><svg id="Layer_1" style="enable-background:new 0 0 50 50;" version="1.1" viewBox="0 0 50 50" xml:space="preserve" xmlns="http://www.w3.org/2000/svg" xmlns:xlink="http://www.w3.org/1999/xlink"><style type="text/css">
	.st0{fill:#F0C4DB;}
	.st1{fill:#FF9D9C;}
	.st2{fill:#9BEAF9;}
	.st3{fill:#E9F4BC;}
	.st4{fill:#505050;}
	.st5{fill:#FEBECC;}
	.st6{fill:#FFFFFF;}
	.st7{fill:#FDE4A1;}
	.st8{fill:#FEE7B5;}
	.st9{fill:#CDF6FC;}
	.st10{fill:#F2C6DD;}
	.st11{opacity:0.1;}
</style><g><path class="st8" d="M46.62,27.81c-3.56-2.78-8.03-4.45-12.9-4.45c-11.6,0-21,9.4-21,21c0,1.55,0.18,3.06,0.5,4.52h33.4V27.81z"/><g><g><path class="st6" d="M4.12,9.58v19.8c0,5.11,4.62,9.73,9.25,13.08c4.63,3.35,9.25,5.42,9.25,5.42s18.5-8.28,18.5-18.5V9.58     l-18.5-7.71L4.12,9.58z"/><path class="st1" d="M22.65,42.93c-1.63-0.85-4.16-2.26-6.67-4.07c-4.71-3.4-7.4-6.86-7.4-9.47V12.55L22.62,6.7l14.05,5.85v16.83     C36.67,33.92,28.87,39.75,22.65,42.93z"/><g><circle class="st6" cx="22.62" cy="16.36" r="4"/><path class="st3" d="M30.84,30.67H14.4c0.01-3.31,1.98-6.16,4.81-7.46l6.5-0.14C28.71,24.29,30.83,27.23,30.84,30.67z"/></g></g><g><path class="st4" d="M34.64,39.28c-0.31,0.27-0.33,0.75-0.06,1.06c0.14,0.16,0.35,0.25,0.56,0.25c0.18,0,0.36-0.07,0.5-0.2     c0.31-0.27,0.33-0.75,0.06-1.05C35.43,39.04,34.93,39.01,34.64,39.28z"/><path class="st4" d="M41.41,8.89l-18.5-7.71c-0.18-0.08-0.39-0.08-0.57,0L3.84,8.89C3.56,9,3.38,9.27,3.38,9.58v19.8     c0.01,2.53,1.04,5.11,3.04,7.66c1.57,2.01,3.7,3.98,6.51,6.03c4.5,3.24,8.9,5.27,9.39,5.49c0.1,0.04,0.2,0.06,0.31,0.06     c0.1,0,0.2-0.02,0.31-0.06c0-0.01,0.01-0.01,0.04-0.02c1.02-0.48,6.37-3.03,11.1-6.82c0.32-0.26,0.37-0.74,0.12-1.06     c-0.25-0.31-0.75-0.36-1.06-0.11c-2.6,2.09-5.41,3.78-7.31,4.84c-1.49,0.83-2.64,1.39-3.21,1.66c-1.11-0.53-4.94-2.4-8.81-5.2     c-3.36-2.41-8.98-7.24-8.94-12.47v-19.3l4.37-1.82c0.02-0.01,0.04-0.01,0.05-0.02l13.33-5.55l17.75,7.39v19.3     c0.01,2.72-1.45,5.6-4.32,8.55c-0.29,0.29-0.28,0.77,0.01,1.06c0.29,0.28,0.78,0.27,1.06-0.02c3.15-3.23,4.75-6.46,4.75-9.59     V9.58C41.87,9.27,41.69,9,41.41,8.89z"/><path class="st4" d="M30.06,8.98L22.91,6c-0.18-0.07-0.39-0.07-0.57,0L8.29,11.85c-0.28,0.12-0.46,0.39-0.46,0.7v16.83     c0.05,2.98,2.64,6.37,7.71,10.08c2.53,1.82,5.07,3.25,6.76,4.13c0.11,0.06,0.23,0.08,0.35,0.08s0.24-0.02,0.34-0.08     c3.48-1.78,6.95-4.1,9.5-6.37c3.29-2.94,4.9-5.51,4.93-7.84V12.55c0-0.31-0.18-0.58-0.46-0.7l-3.21-1.33     c-0.37-0.16-0.82,0.03-0.97,0.4c-0.08,0.19-0.08,0.39-0.01,0.58c0.08,0.18,0.22,0.32,0.4,0.4c0,0,0,0,0.01,0.01l2.74,1.14v16.33     c0.03,1.74-1.62,4.26-4.43,6.72c-2.36,2.1-5.59,4.28-8.84,5.98c-1.57-0.83-3.92-2.17-6.23-3.84c-4.37-3.12-7.15-6.6-7.09-8.86     V13.05l13.3-5.54l6.86,2.86c0.37,0.15,0.82-0.04,0.98-0.41C30.62,9.58,30.44,9.14,30.06,8.98z"/><path class="st4" d="M31.33,11.13c0.09,0.04,0.19,0.06,0.29,0.06c0.31,0,0.58-0.18,0.69-0.46c0.08-0.18,0.08-0.39,0-0.57     c-0.07-0.19-0.22-0.33-0.4-0.41c-0.37-0.16-0.83,0.03-0.98,0.4c-0.08,0.19-0.08,0.39,0,0.58C31,10.91,31.15,11.06,31.33,11.13z"/><path class="st4" d="M22.62,21.12c2.62,0,4.75-2.13,4.75-4.75c0-2.62-2.13-4.75-4.75-4.75s-4.75,2.13-4.75,4.75     C17.87,18.98,20,21.12,22.62,21.12z M22.62,13.11c1.79,0,3.25,1.46,3.25,3.25s-1.46,3.25-3.25,3.25s-3.25-1.46-3.25-3.25     S20.83,13.11,22.62,13.11z"/><path class="st4" d="M25.99,22.38c-0.09-0.04-0.19-0.05-0.3-0.06l-6.5,0.14c-0.1,0-0.2,0.03-0.3,0.07     c-3.18,1.45-5.24,4.64-5.25,8.13c0,0.2,0.08,0.39,0.22,0.53s0.33,0.22,0.53,0.22h16.44c0.2,0,0.39-0.08,0.53-0.22     s0.22-0.33,0.22-0.53C31.58,27.01,29.38,23.76,25.99,22.38z M15.19,29.92c0.27-2.56,1.85-4.83,4.2-5.96l6.18-0.13     c2.51,1.08,4.21,3.41,4.49,6.09H15.19z"/></g></g></g></svg>